PathFileType	4	(X/Y/Z)	8_coords_data.trc
DataRate	CameraRate	NumFrames	NumMarkers	Units	OrigDataRate	OrigDataStartFrame	OrigNumFrames
30.0	30.0	6	21	m	30.0	10	48
Frame#	Time	THUMB_TIP	THUMB_IP	THUMB_MCP	THUMB_CMC	INDEX_TIP	INDEX_DIP	INDEX_PIP	INDEX_MCP	MIDDLE_TIP	MIDDLE_DIP	MIDDLE_PIP	MIDDLE_MCP	RING_TIP	RING_DIP	RING_PIP	RING_MCP	PINKY_TIP	PINKY_DIP	PINKY_PIP	PINKY_MCP	WRIST
X1	Y1	Z1	X2	Y2	Z2	X3	Y3	Z3	X4	Y4	Z4	X5	Y5	Z5	X6	Y6	Z6	X7	Y7	Z7	X8	Y8	Z8	X9	Y9	Z9	X10	Y10	Z10	X11	Y11	Z11	X12	Y12	Z12	X13	Y13	Z13	X14	Y14	Z14	X15	Y15	Z15	X16	Y16	Z16	X17	Y17	Z17	X18	Y18	Z18	X19	Y19	Z19	X20	Y20	Z20	X21	Y21	Z21
9	0.3	-0.047565799713134765	-0.10361900329589843	1.0118900146484375	-0.06605429840087891	-0.08854949951171875	1.0146699829101562	-0.08022100067138672	-0.06783260345458984	1.0122000122070312	-0.07853079986572266	-0.03883420181274414	1.0134500122070313	-0.07655079650878906	-0.14779600524902345	0.9868079833984374	-0.07743470001220704	-0.1278560028076172	0.9835369873046875	-0.07800180053710938	-0.10782099914550781	0.9767760009765625	-0.07485690307617188	-0.07109809875488281	0.9680430297851562	-0.06855220031738281	-0.068302001953125	1.00097998046875	-0.06450730133056641	-0.08236129760742188	1.0021099853515625	-0.05727310180664062	-0.09773670196533203	0.9917069702148438	-0.05339659881591797	-0.06613390350341797	0.9665969848632813	-0.05432820129394531	-0.06667350006103516	1.015760009765625	-0.05047090148925781	-0.08084400177001953	1.0106099853515624	-0.04004169845581055	-0.09194709777832032	0.9997000122070312	-0.036759998321533205	-0.06206280136108398	0.9779760131835937	-0.01212440013885498	-0.12064900207519531	0.992448974609375	-0.01640769958496094	-0.10162899780273438	0.992833984375	-0.02095490074157715	-0.08469149780273437	0.9928779907226563	-0.029072500228881835	-0.05827959823608399	0.9946820068359375	-0.06861750030517579	-0.001209400057792663	1.0193800048828126
10	0.3333333333333333	-0.047569900512695315	-0.1040009994506836	1.0115800170898437	-0.06610919952392579	-0.08883209991455078	1.0145900268554688	-0.08022350311279297	-0.06815740203857422	1.0120900268554687	-0.07860350036621094	-0.03919779968261719	1.0134000244140624	-0.07653070068359374	-0.14799800109863281	0.986666015625	-0.07743250274658203	-0.1280850067138672	0.983385009765625	-0.07799839782714844	-0.10800900268554688	0.9766649780273438	-0.0749260025024414	-0.07128309631347657	0.968208984375	-0.06854550170898438	-0.06868329620361328	1.0011199951171874	-0.06449019622802735	-0.08261509704589844	1.0020700073242188	-0.057348300933837894	-0.09790740203857422	0.9916920166015625	-0.05339339828491211	-0.06630210113525391	0.9665540161132813	-0.05447140121459961	-0.06718900299072265	1.0156799926757814	-0.05019979858398437	-0.08100509643554688	1.0091400146484375	-0.04007059860229492	-0.0919218978881836	0.999343017578125	-0.03680350112915039	-0.062211498260498044	0.9778770141601563	-0.012084400177001953	-0.1208489990234375	0.9924929809570312	-0.01638990020751953	-0.10181400299072266	0.9928109741210938	-0.02098270034790039	-0.084810302734375	0.99281298828125	-0.029118600845336913	-0.0582780990600586	0.9947210083007813	-0.06871150207519532	-0.0014731099605560301	1.0194099731445312
11	0.36666666666666664	-0.04776639938354492	-0.1042040023803711	1.010989990234375	-0.06617060089111328	-0.08903150177001953	1.01425	-0.0803364028930664	-0.06830039978027344	1.0117999877929686	-0.07874019622802735	-0.03938740158081055	1.01302001953125	-0.07672989654541015	-0.14805799865722657	0.9859879760742187	-0.0776084976196289	-0.12810299682617188	0.98277197265625	-0.07817479705810547	-0.10803700256347656	0.9761510009765625	-0.07507440185546875	-0.07121309661865234	0.9676849975585937	-0.06879180145263672	-0.06892510223388672	1.000469970703125	-0.06469100189208984	-0.08270880126953126	1.0016599731445313	-0.05744279861450195	-0.09794979858398438	0.9911610107421875	-0.05357939910888672	-0.06636479949951171	0.9660269775390625	-0.054547401428222654	-0.06719100189208985	1.0152899780273437	-0.05068370056152344	-0.0807500991821289	1.00947998046875	-0.040214298248291015	-0.09199579620361328	0.9980250244140625	-0.03692359924316406	-0.06230839920043945	0.97739599609375	-0.012145700454711915	-0.12097699737548828	0.9920419921875	-0.016475799560546876	-0.10193499755859375	0.9923579711914062	-0.02110860061645508	-0.0849405975341797	0.9923709716796875	-0.02919449996948242	-0.05861980056762695	0.9939340209960937	-0.0688009033203125	-0.0017262200117111202	1.0191799926757812
12	0.4	-0.047891998291015626	-0.10405100250244141	1.0104199829101563	-0.06613580322265625	-0.08881590270996094	1.0137100219726562	-0.08048359680175782	-0.06819190216064454	1.01127001953125	-0.07874590301513672	-0.03921599960327148	1.0126199951171875	-0.07668109893798829	-0.14783700561523438	0.9852420043945312	-0.07755419921875	-0.12786100006103515	0.9820999755859375	-0.07810430145263672	-0.10776100158691407	0.9754869995117188	-0.07500070190429688	-0.07101419830322266	0.9670159912109375	-0.06879530334472657	-0.06853679656982421	1.00025	-0.06468589782714844	-0.0825196990966797	1.0011900024414062	-0.05739120101928711	-0.09769409942626953	0.99068798828125	-0.05343840026855469	-0.06606069946289063	0.9656309814453125	-0.05471689987182617	-0.06723750305175781	1.0149500122070312	-0.05079930114746094	-0.0809281005859375	1.009469970703125	-0.04037939834594727	-0.09212400054931641	0.9985570068359375	-0.03692449951171875	-0.06203379821777344	0.9771480102539063	-0.012128999710083008	-0.12074800109863282	0.9914819946289063	-0.01644650077819824	-0.10174500274658203	0.991885986328125	-0.021068899154663086	-0.08474089813232422	0.991844970703125	-0.029275100708007814	-0.05843709945678711	0.9935230102539062	-0.06884729766845703	-0.001497640013694763	1.0189600219726562
13	0.43333333333333335	-0.047213699340820314	-0.10351100158691406	1.0098400268554688	-0.06582270050048829	-0.088535400390625	1.0131599731445313	-0.07998600006103515	-0.06793910217285157	1.010760009765625	-0.07842579650878906	-0.038995201110839844	1.012239990234375	-0.07590679931640625	-0.14745199584960939	0.984218994140625	-0.07688289642333984	-0.12746199798583985	0.9812769775390625	-0.07751260375976562	-0.10737100219726563	0.9747919921875	-0.07440280151367187	-0.07079049682617188	0.9666630249023438	-0.06844660186767579	-0.06820890045166016	0.999927978515625	-0.0643021011352539	-0.08219490051269532	1.0004600219726563	-0.05689649963378906	-0.09718319702148437	0.9901859741210938	-0.05313010025024414	-0.06541709899902344	0.9650430297851562	-0.05448989868164063	-0.06700730133056641	1.01477001953125	-0.050234798431396485	-0.08064409637451173	1.0086900024414063	-0.03988460159301758	-0.09155729675292969	0.9979019775390625	-0.036597999572753906	-0.061322498321533206	0.976593994140625	-0.011621100425720215	-0.12008300018310547	0.9908259887695312	-0.015998700141906737	-0.10108799743652344	0.9912210083007813	-0.02068989944458008	-0.08411000061035157	0.9914039916992188	-0.02894569969177246	-0.05747700119018555	0.9936500244140625	-0.06877539825439453	-0.001215309977531433	1.0186599731445312
14	0.4666666666666667	-0.04671689987182617	-0.10299400329589843	1.0093200073242188	-0.06529519653320312	-0.08821929931640625	1.0127899780273437	-0.07980429840087891	-0.06760330200195312	1.0105900268554688	-0.07824639892578125	-0.03868669891357422	1.0121900024414063	-0.07518350219726562	-0.14703399658203126	0.9834869995117187	-0.07627449798583984	-0.12702100372314454	0.9805889892578125	-0.0770510025024414	-0.10688800048828125	0.9743309936523438	-0.07428739929199218	-0.0700425033569336	0.9662239990234375	-0.06796309661865234	-0.06783879852294922	0.9995989990234375	-0.06393270111083985	-0.0816490020751953	1.0003800048828124	-0.05644390106201172	-0.09671009826660157	0.9897039794921875	-0.05282820129394531	-0.06483689880371094	0.9648410034179687	-0.05443349838256836	-0.06662999725341796	1.0145499877929687	-0.05014670181274414	-0.07971279907226562	1.008280029296875	-0.03941469955444336	-0.0911321029663086	0.997094970703125	-0.036332401275634765	-0.06072100067138672	0.97631298828125	-0.011179400444030761	-0.11946399688720703	0.98997998046875	-0.015620100021362304	-0.10050599670410157	0.9905650024414062	-0.020325899124145508	-0.08350340270996094	0.9908330078125	-0.028730899810791015	-0.057077098846435546	0.9933350219726562	-0.0687511978149414	-0.000844886004924774	1.0191900024414062
